<?xml version="1.0" encoding="UTF-8"?>
<svg xmlns="http://www.w3.org/2000/svg" viewBox="0 0 2003.68 501.88">
  <defs>
    <style>
      .cls-1 {
        fill: #37d1c5;
      }

      .cls-2 {
        fill: #1acabc;
      }

      .cls-3 {
        fill: #fdfefe;
      }
    </style>
  </defs>
  <g id="text">
    <g>
      <g>
        <path class="cls-1" d="M777.39,236.9l-.78,37.55h-37.44v-36.55l-2.81-2.48-18.58,1.59v96.28h21.39v-32.98c0-.59,2.36-2.71,1.78-4.46h35.66c.02,12.51-.73,25.06,1.87,37.35l21.31.1v-98.06c-4.86.8-19.94-1.86-22.4,1.67Z"/>
        <path class="cls-1" d="M882.69,313.68h-35.66c-4.09,0-2.42-15.96-2.67-19.61.18-.32,1.46-1.6,1.78-1.78l33.78-.11c.61-5.96,3.14-12.44-1-17.83l-32.77.11c-2.3-2.32-2.78-16.58-1.78-19.61l39.34-.78c3.38-2.35,1.01-14.43,1.67-18.83h-62.4v98.06h62.4c-.25-3.57,1.42-19.61-2.67-19.61Z"/>
        <path class="cls-1" d="M620.6,235.23c-3.96,0-3.96,21.39,0,21.39h27.64v76.67h21.4s0-76.67,0-76.67c.38-.18,1.14.09,1.78,0,20.26-2.83,32.24,10.04,28.53-21.39h-79.34Z"/>
      </g>
      <g>
        <path class="cls-2" d="M747.1,357.59h-94.82v25.78h32.22c4.22,0,2.5,16.49,2.76,20.25v3.68c1.29,10.43-2.42,75.47,1.72,78.37,2.67,1.86,27.73,1.8,27.73-1.96v-100.34h33.14c-.55-3.98,1.87-25.78-2.76-25.78Z"/>
        <path class="cls-2" d="M960.74,462.46c-3.86-5.84-38.66-1.15-47.11-2.54-2.55-1.84-2.33-20.72-1.75-25,.09-.66-.19-1.44,0-1.84h40.51s.02-22.87.02-22.87l-40.54-2.9c-.38-7.94-1.03-16.74,1.84-23.93l44.1-.1c.7-3.99,4.6-25.68-.83-25.68h-74.57v126.12l2.76,2.76h73.65c3.66,0,3.87-21.04,1.91-24Z"/>
        <path class="cls-2" d="M631.85,423.05c-1.53-1.61-4.03-1.85-5.34-2.86-5.18-3.98-7.72-5.93-14.07-8.94-8.17-3.87-30.64-8.52-32.01-17.89-.53-3.64,1.26-5.49,1.89-8.15,6.59-5.99,16.16-4.04,23.93-1.84,1.22,1.3,2.78,2.65,3.68,3.68,1.25,1.42-2.81,1.72,3.68,3.68.29,1.67-.23,3.74,0,5.52,2.18,1.88,23.37-4.97,25.03-7.3,3-4.21-6.57-17.43-10.3-20.32-2.62-2.03-1.78-1.87-5.52-3.68-14.38-13.14-40.74-12.05-56.53-2.2-3.66,2.28-4.03,4.1-6.07,5.88-.65.57-1.25,1.21-1.84,1.84-4.67,4.97-7.53,6.32-8.76,14.26-3.97,25.63,9.9,36.81,30.86,46.5,8.95,4.14,33.21,7.45,28.69,22.16-2.88,9.39-11.8,8.78-19.48,9.13-8.66,2.37-15.9-13.91-17.71-14.57-3.44-1.25-22.42,4.5-22.91,6.55-2.17,9.11,10.34,23.57,17.87,28.01,14.95,8.81,37.55,7.19,52.91.05,22.15-10.3,29.83-40.76,12.01-59.52Z"/>
        <path class="cls-2" d="M1243.29,425.71c.67-8.12-1.32-15.91-1.84-23.93-.92-14.11-1.65-28.29-2.64-42.46-1.62-2.33-26.03-2.66-28.29-1.34-4.62,2.7-21.08,39.95-24.3,47.49-2.88,4.15-5.31,11.08-7.24,13.6-1.38,1.81-1.6,1.4-3.78,1.12-6.58-15.1-14.08-32.88-23.96-46.02-2.33-3.98-3.69-13.77-7.86-15.4l-28.97.66c-1.25,33.78-3.83,67.51-5.51,101.27-.21,4.27.2,8.61,0,12.89-.09,1.99-5.57,10.4,1.18,12.63,3.35,1.11,23.97.93,25.63-1.47,3.52-5.06-.11-42.65,2.64-51.67l3.66-22.08c2.06,9.04,8.68,16.05,12.91,23.92,4.86,9.04,9.55,24.65,16.78,32,3.74,3.8,7.59,5.16,10.49-.13,5.07-12.35,12.02-20.81,16.92-33.71.2-.54-.19-1.3,0-1.84,5.34-2.16,5.33-9.1,7.36-12.89,2.94-5.49,4.18-9.05,9.21-11.05.15,26.1-1.2,52.97,3.57,78.37,5.37.67,25.72,3.17,27.48-2.22,4.48-13.7-7.2-42.05-3.43-57.74Z"/>
        <path class="cls-2" d="M1489.08,416.5c-.6,0-1.57-2.13-3.74-.26-5.16,4.44-3.31,24.19,1.9,24.19h30.38c2.88,15.85-19.77,22.34-31.93,21.95-32.26-1.02-39.3-44.19-25.14-67.98.58-.58,1.26-1.39,1.84-1.84.29-.23.55-.51.8-.8l1.04-1.04c11.7-7.7,21.94-13.27,35.63-5.25,4.81,2.82,10.24,12.15,15.02,12.61,9.21.88,15.2-8.41,24.77-7.44.4-12-8.84-19.95-18.34-25.7-19.02-11.51-42.12-12.55-62.6-3.68-5.56,2.41-6.84,4.22-11.05,7.36-4.18,3.12-12.08,8.49-12.89,12.89-.58.63-1.23,1.23-1.84,1.84-18.88,18.89-13.17,63.45,3.68,82.85,2.22,2.56,2.81,3.28,5.52,5.52,25.15,20.81,60.75,22.34,87.07,3.7,1.72-1.22,14.2-12.83,14.2-13.82v-45.11h-54.31Z"/>
        <path class="cls-3" d="M817.99,420.19h-18.41c-.33-.18-1.65-1.51-1.84-1.84v-33.14c3.02-3.02,14.59-2.33,19.16-1.67,20.22,2.91,18.7,29.5,1.09,36.65Z"/>
        <path class="cls-2" d="M860.33,475.42h0c-3.06-7.13-18.94-34.18-17.69-38.8.46-1.7,2.36-2.55,2.96-3.55,4.27-2.31,7.64-6.46,9.21-11.05.18-.54-.17-1.27,0-1.84,6.76-4.62,7.39-19.28,3.68-25.78-.05-.6.1-1.26,0-1.84.68-8.49-2.09-14.86-7.27-21.28-5.13-6.35-18.89-13.7-26.79-13.7h-54.31l-1.47,123.91c1.53,8.15,30.93,5.73,30.93,2.21v-41.43c3.17.12,6.71-.56,9.77.36,7.22,2.15,17.57,36.56,25.2,42.92l29.46.9c.03-4.15-2.14-7.45-3.68-11.03ZM845.6,371.45c-.02-.67-.04-1.34-.24-1.85.2.51.22,1.19.24,1.85ZM817.99,420.19h-18.41c-.33-.18-1.65-1.51-1.84-1.84v-33.14c3.02-3.02,14.59-2.33,19.16-1.67,20.22,2.91,18.7,29.5,1.09,36.65Z"/>
        <path class="cls-3" d="M1939.24,383.36c22.7-3.21,37.09,4.75,29.46,29.46-.15.21-3.14,3.2-3.68,3.68-8.7,4.04-18.21,4.03-27.63,3.69v-33.15c.49-.54.53-2.78,1.85-3.68Z"/>
        <path class="cls-2" d="M1981.59,440.44c0-.63-1.96-2.13-.9-3.7,1.98-2.92,8.48-4.94,11.95-11.03.62-1.1,1.47-2.54,1.84-3.68.17-.53-.14-1.23,0-1.84,8.19-9.91,6.98-29.25,1.84-40.51-4.44-9.73-12.21-15.05-22.09-18.41-2.6-.89-12.08-3.68-13.81-3.68h-49.71l-2.76,2.76v123.36c0,3.89,26.53,4.09,28.65,1.04,4.14-5.94-3.54-39.83,3.81-42.2,2.48-.8,10.38-1.14,11.91.88,4.05,5.36,18.11,43.05,22.82,43.05h28.54c-3.49-16.56-15.55-30.49-22.09-46.03ZM1968.7,412.82c-.15.21-3.14,3.2-3.68,3.68-8.7,4.04-18.21,4.03-27.63,3.69v-33.15c.49-.54.53-2.78,1.85-3.68,22.7-3.21,37.09,4.75,29.46,29.46Z"/>
        <g>
          <path class="cls-1" d="M1883.99,459.69c-5.87-2.91-38.83,6.23-47.85-2.69.38-.94.59-19.43,0-20.25,10.6-5.38,29.05.9,39.29-1.81,2.05-.54.99-3.49,1.22-3.72.49-.48,3.26,1.65,3.83-2.63,4.02-29.97-16.4-20.46-37.98-21.31-3.54-.14-7.39,1.89-6.36-3.68.78-1.22-.39-14.67,0-18.41,15.13-4.1,32.22-.8,47.87-1.84v-25.78h-74.57l-2.76,2.76v123.36l2.76,2.76h75.49c3.48,0,5.37-23.64-.94-26.77Z"/>
          <path class="cls-1" d="M1640.97,361.27c-2.78,11.46,2.05,33.27,0,46.03-1.12.19-2.48-.08-3.68,0-13.75.97-28.48-.71-42.35,0v-46.95l-2.76-2.76h-26.7v126.12c0,4.18,29.46,4.18,29.46,0v-50.63h44.19c5.53,6.31-1.51,45.71,2.64,51.67,2.13,3.05,28.65,2.85,28.65-1.04v-123.36c0-3.48-27.9-5.49-29.46.92Z"/>
          <path class="cls-1" d="M1782.74,357.59c-20.78-2.95-62.21-.78-84.69,0-1.22.04-2.48-.11-3.68,0-1.82.17-3.71-.17-5.53,0-.16,1.82.17,3.71,0,5.53-.16,1.8.02,3.7,0,5.52-.02,2.34-.29,5.18,0,7.36.42,3.15-.47,6.37,3.68,7.36,4.31,1.03,16.65.16,22.09,0,1.8-.05,3.8.23,5.52,0,4.2,1.28,3.59,4.75,3.79,8.19,1.83,31.81-3.13,64.01-.11,94.92h26.7c2.02,0,2.64-4.5,2.86-6.35,3.49-29.74-2.79-66.27-.09-96.75.59-.09,1.24.04,1.84,0,10.37-.7,21.09,1.21,31.42-.8,2.13-6.85,5.51-23.65-3.8-24.97Z"/>
        </g>
        <path class="cls-1" d="M1353.76,460.69h-53.39v-100.34l-2.76-2.76h-26.7l.08,61.75c-1.58,15.66.32,31.83,0,47.87-.07,3.63-4.65,19.26,2.68,19.26h77.33c4.63,0,2.21-21.8,2.76-25.78Z"/>
        <polygon class="cls-1" points="1372.17 357.48 1372.17 357.59 1372.17 483.71 1372.17 486.56 1399.89 486.56 1399.89 359.43 1399.89 357.48 1372.17 357.48"/>
        <g>
          <path class="cls-3" d="M1037.08,392.57l11.05,46.02h-27.62c-.26-2.24,10.86-38.85,12.69-43.4.84-2.08,0-4.12,3.88-2.62Z"/>
          <path class="cls-2" d="M1048.8,357.83c-6.35.49-25.41-2.39-29.26,1.54l-42.87,121.16c-3.14,8.82,23.87,6.73,27.3,5.03,4.22-2.09,8.31-19.58,9.18-24.88,10.51,1.91,32.22-2.73,41.13.3,6.24,2.12,4.99,21.08,12.26,24.56,3.93,1.88,26.04,2.39,27.48-2.11l-45.21-125.61ZM1037.08,392.57l11.05,46.02h-27.62c-.26-2.24,10.86-38.85,12.69-43.4.84-2.08,0-4.12,3.88-2.62Z"/>
        </g>
      </g>
    </g>
  </g>
  <g id="identity">
    <g>
      <path class="cls-2" d="M403.01,131.77c-2.42.65-22.91,12.3-24.17,13.82-4.2,5.06,2.33,10.01,1.99,10.48-.08.11-1.5.23-2.47,1.01-7.24,5.85-17.12,13.19-23.54,19.49-1.66,1.63-3.48,2.75-2.98,5.51l48.67-26.82c5.05-3.83,13.29-6.55,14.28-13.75,1.12-8.07-4.15-11.79-11.78-9.73Z"/>
      <path class="cls-2" d="M583.76,94.51c-2.72.64-2.65,1.74-3.92,2.57-.67.44-1.78.17-3.01,1.45-12.79,13.27,3.72,35.66,21.01,24.55,14.85-9.54,5.66-33.23-14.08-28.57Z"/>
      <path class="cls-2" d="M449.84,344.08c7.85-13.99-8.99-28.44-20.43-19.89-1.53,1.14-1.27,2.56-1.57,2.89-.18.2-2.76-.55-2,2-12.69,15.12,14.19,32.47,24,15Z"/>
      <path class="cls-2" d="M337.83,121.58c-6.06,7.37-15.85,14.13-21.51,21.49-2.99,3.89-4.3,7,1.56,3.56,7.96-4.68,20.63-13.98,28.28-19.72,3-2.25,10.37-7.61,11.68-10.82,5.03-9.25,1.17-15.35-9-10-4.19,2.21-20.24,11.8-11,15.5Z"/>
      <path class="cls-2" d="M127.84,124.08c1.19,2.1,1.19,2.84,4.1,4.39,6.5,3.44,10.39,2.83,15.9-1.39.36-.28.69-.66,1-1,.55-.6,1.69-.77,2.42-2.03,6.62-11.4-6.28-24.47-18.42-18.97-7.78,3.53-8.98,12-5,19Z"/>
      <path class="cls-2" d="M280.84,422.08c-12.28-9.26-26.77,3.53-21.24,16.75.82,1.96,2.25,2.21,3.24,3.25.32.33.64.72,1,1,2.77,2.17,4.33,3.93,8.53,4.05,7.93.23,15.51-8.36,14.07-16.07-.29-1.55-1.72-4.56-2.61-5.98-1.08-1.71-1.51-1.88-3-3Z"/>
      <path class="cls-2" d="M219.84,86.08c6.49,4.81,10.28,4.18,16-1,.34-.31.72-.64,1-1,.65-.85,1.95-.99,2.55-2.93,3.51-11.34-7.55-21.06-18.35-16.4-1.62.7-1.07,2.22-1.2,2.33-.34.3-1.77.04-2.87,1.59-4,5.6-2.78,12.03,1.87,16.41.34.32.62.72,1,1Z"/>
      <path class="cls-2" d="M328.84,368.08c-.44.28-1.44-.13-2.43,1.03-3.75,4.36-2.78,7.91.43,11.97.27.35.66.71,1,1,2.9,2.46,3.18,2.38,7.51,2,5.19-.46,3.39-1.81,4.49-3,.1-.11,1.38.36,1.98-.72,4.53-8.24-3.96-17.97-12.98-12.28Z"/>
      <path class="cls-2" d="M173.84,373.08c7.13,5.36,15.64.62,13.95-8.45-2.25-12.08-22.93-6.7-15.95,6.45.31,1.27,1.2,1.4,2,2Z"/>
      <path class="cls-2" d="M128.84,200.08c9.27-3.33,5.48-15.78-3.5-16.04-6.91-.2-13.39,12.17-3.5,16.04,1.21.47,1.31,1.14,3.51,1.13,2.08-.01,2.32-.71,3.49-1.13Z"/>
      <path class="cls-2" d="M225.84,122.08c9.22-7.39-1.22-19.08-9.96-13.46-9.68,6.23,0,21.45,9.96,13.46Z"/>
      <path class="cls-2" d="M111.54,222.3c-3.15.56-2.54,1.77-3.71,3.78-.14.23-1.43.43-1.81,1.66-3.97,13.07,17.92,15.77,15.77.92-.77-5.29-5.44-7.21-10.25-6.36Z"/>
      <path class="cls-2" d="M295.84,111.08c.31.51.08,1.54,1.03,2.43,7.46,6.89,17.87-1.21,14.2-10.17-4.17-10.19-20.15-4.08-17.05,6.07.37,1.22,1.65,1.41,1.81,1.67Z"/>
      <path class="cls-2" d="M221.58,413.32c-5.53.87-11.09,6.77-11.68,12.37-1.31,12.45,12.49,21.41,22.73,14.15.48-.34.08-1.65.21-1.76.65-.58,2.1-.46,3.04-1.71,7.67-10.15-1.74-25.04-14.3-23.05Z"/>
      <path class="cls-2" d="M511.33,122.04c15.73,12.99,39.91-.3,36.45-20.41-.43-2.49-4.78-11.2-7.95-11.55-.33-.34-.66-.67-1-1-6.14-6-19.25-5.32-25.93-.43-11.08,8.11-12.24,24.58-1.57,33.4Z"/>
      <path class="cls-2" d="M105.35,167.14c5.24-.22,5.27-1.16,8.48-4.06.34-.31.72-.64,1-1,.91-1.18,2.22-1.16,2.78-3.71,1.9-8.64-4.02-18.69-13.23-18.32-18.48.75-17.58,27.86.97,27.09Z"/>
      <path class="cls-2" d="M387.28,83.02c-6.61,6.55-6.25,18.22,2.56,22.06.63,1.32-1.02,2,2.72,2.74,10.09,1.99,20.36-3.02,20.36-14.24,0-6.11-5.56-14.61-12.08-14.5-2.77.05-6.34,1.11-9,2-1.92.64-2.39-.22-4.56,1.94Z"/>
      <path class="cls-2" d="M312.56,414.11c-1.06.59-.64,1.92-.73,1.97-.54.34-2.28-.26-4.04,1.44-4.79,4.61-5.64,16.89,1.04,20.56.23.34.68.69,1,1,4.86,4.71,14.76,3.97,19.44-1.06,11.35-12.2-4.32-30.84-16.71-23.91Z"/>
      <path class="cls-2" d="M262.8,74.63c5.82,16.7,35.12,3.16,20.04-12.55-.2-.35-.7-.66-1-1-8.01-8.96-23.18,1.66-19.04,13.55Z"/>
      <path class="cls-2" d="M448.84,143.08c.26.38.71.65,1,1,4.52,5.36,11.97,6.16,18.56,4.06,2.95-.94,3.02-2.15,4.44-3.06.52-.33,1.27-.4,2-1,8.47-6.94,9.62-16.28,3.01-25.29-.65-.88-1.91-.6-2.01-.71-.1-.1.18-1.34-.7-2.01-18.89-14.4-43.17,9.88-26.3,27.01Z"/>
      <path class="cls-2" d="M579.92,154.8c-1.77-2.49-7.97-6.59-11.01-7.29-14.62-3.34-27.54,12.83-19.92,25.92,1.19,2.05,3.05,3.25,4.85,4.65,14.41,11.28,33.84-2.76,27-20-.38-.97-.27-2.38-.92-3.29Z"/>
      <path class="cls-2" d="M403.33,204.07l-2.49,4.01c1.66,1.46,15.99-6.72,19-7.99,4.36-1.85,8.74-3.68,13.22-5.28,6.07-2.16,13.58-1.43,17.78-7.72,3.25-4.86,2.28-7-1-11-.74-.91-.89-1.28-2-2-1.01-.66-1.48-1.35-3-1-.2-.49.24-1.82,0-2.01-.48-.36-1.83.82-2.53.88-.66.06.08-1.76-1.96-1.97-1.49-.16-4.04,1.97-5.51,3.09-4.54.02-7.99,6.01-8.77,9.74-.7,3.32,2.4,2.29-2.23,6.26-2.98,2.56-5.77,3.86-9,7l-11.51,7.99Z"/>
      <circle class="cls-2" cx="149.17" cy="161.53" r="7.66" transform="translate(-61.03 226) rotate(-64.33)"/>
      <path class="cls-2" d="M190.72,99.5c10.41-13.36-8.93-28.2-19.54-17.08-9.41,9.86,2.67,28.65,16.66,18.66.59-.42,1.62.03,2.88-1.58Z"/>
      <path class="cls-2" d="M119.89,274.42c3.11-3.79,1.8-11.29-2.99-12.9-8.82-2.95-16.08,6.35-9.06,13.05,4,3.82,5.92,2.95,9.99.51.29-.17,1.19.4,2.05-.66Z"/>
      <path class="cls-2" d="M176.36,137.08c1.12,1.49,1.9,1.44,2.82,1.73.21.13.43.23.66.27,1.08.59,1.03,1.71,3.3,1.72,4.1.02,3.43-2.47,3.7-2.72.42-.39,2.16.71,2.78-2.71,2.88-15.92-21.26-8.94-13.25,1.71Z"/>
      <path class="cls-2" d="M483.24,349.82c1.67,2.58,3.94,4.72,6.61,6.24,5.69,3.24,12.63,3.36,18.42.32,5.79-3.04,9.64-8.82,10.21-15.34.26-2.97-.18-5.95-1.27-8.72-10.51-27.93-51.68-7.86-33.98,17.49Z"/>
      <path class="cls-2" d="M494.84,259.08c-1.57,1.22-1.78,1.43-3,3-14.32,18.51,11.66,38.51,26.96,24.44,1.79-1.64,1.28-1.86,2.04-3.44.31-.66.73-.99,1-2,1.56-.68,2.43-2.1,2.78-3.71,3.63-16.61-15.98-28.98-29.78-18.29Z"/>
      <path class="cls-2" d="M467.84,282.08c-.33-.33-.63-.71-1-1-.85-.67-.99-1.95-2.93-2.55-2.7-.83-9.31-.88-11.87.22-1.62.7-1.09,2.24-1.2,2.33-.58.48-1.98.17-3.46,2.01-3.79,4.7-3.42,12.22.02,16.97.67.93,2.19.79,2.44,1.02.1.09-.28,1.46.66,2.04,5.19,3.22,13.2,1.97,17.66-2.01.81-.72.54-1.88,1.05-2.63,1.91-2.8,2.71-1.72,2.72-6.91,0-5.34-.73-6.19-4.09-9.5Z"/>
      <path class="cls-2" d="M484.78,219.85c-.7-1.14-1.86-.67-1.95-.77-.28-.3-.04-1.76-1.57-2.89-3.71-2.75-10.9-2.55-14.77-.15-.94.58-.56,1.95-.66,2.04-.33.29-1.76.04-2.87,1.59-2.46,3.44-2.86,9.51-1.69,13.51.74,2.54,2.37,1.7,2.56,1.9.21.23.01,1.62,1.01,2.45.66.55,1.69.34,1.99.55.8.57,1.04,1.95,2.92,2.55,11.7,3.71,21.76-9.8,15.03-20.78Z"/>
      <path class="cls-2" d="M500.31,191.16c1.84.1,6.36-.23,7.81-1.09,1.09-.65.63-1.93.72-1.99.32-.14.63-.31.92-.5,1.1-.48,2.28-.72,3.63-2.46,9.57-12.31-8.46-29.95-21.86-18.08-.22.2-3.18,4.64-3.26,4.92-2.39,8.87,2.54,18.67,12.05,19.19Z"/>
      <path class="cls-2" d="M318.84,71.08c-.46.11-.95.55-1,1-.34,3.23.18,6.69,2.14,9.35.6.81,5.44,4.51,6.24,4.8,5.56,2.02,13.68-.36,15.62-6.15.09-.26-.04-.65,0-1,3.34-1.16,1-2.66,1-3,0-.33,0-.67,0-1,1.2-1.04,1.2-1.96,0-3-.03-.33.01-.67,0-1,0-.12,1.04-.59.62-1.96-3.34-10.94-22.39-12.25-24.62,1.96Z"/>
      <path class="cls-2" d="M353.84,398.08c-.6.51-1.58,1.4-2,2-11.35,16.31,9.22,31.73,20,21,.32-.32.78-.65,1-1,14.44-12.92-4.32-34.39-19-22Z"/>
      <path class="cls-2" d="M190.84,403.08c-2.67-8.48-12.96-9.72-20-6-14.98,7.93-3.88,30.19,11.23,24.74,8.58-3.09,11.45-10.23,8.77-18.74Z"/>
      <path class="cls-2" d="M71.64,306.96c5.02,4.08,12.18,4.2,17.34.31,1.15-.87,2.16-1.91,3-3.09,4.05-5.71,3.28-13.52-1.79-18.34s-12.92-5.17-18.41-.83c-1.71,1.35-3.08,3.08-4,5.04-2.76,5.85-1.16,12.83,3.86,16.91Z"/>
      <path class="cls-2" d="M417.07,273.3c-17.12-1.83-14.15,19.91-1.72,19.81,3.69-.03,3.6-1.62,5.48-3.03.2-.15,1.26.27,2.04-.68,5-6.05,1.2-15.35-5.81-16.1Z"/>
      <path class="cls-2" d="M392.85,388.61c5.41,7.68,19.68,7.21,23.99-1.53,6.55-5.98,2.84-18.09-5-22-15.41-7.68-29.03,9.25-18.99,23.53Z"/>
      <path class="cls-2" d="M73.84,187.08c-.36.27-.68.67-1,1-1.5,1.56-3.12,1.74-3.79,4.71-4.08,18.12,18.81,24.07,25.07,12.02,3.18-6.12,2.65-10.65-1.28-15.73-.74-.95-1.03-1.26-2-2-6.71-5.12-10.29-5.08-17,0Z"/>
      <path class="cls-2" d="M545.38,211.09c-6.35-4.1-12.63-4.61-18.83-.01-.89.66-.59,1.88-.71,2.01-.51.56-.34-1.01-2,2-3.57,6.45-4.63,10.07-.24,16.74,11.39,17.32,38.73-2.49,24.24-17.74.47-2.16-1.17-2.16-2.46-2.99Z"/>
      <path class="cls-2" d="M83.84,238.08c-.25-.37-.7-.65-1-1-.3-.35-.65-.7-1-1-.35-.3-.63-.75-1-1-8.27-5.65-18.83-3.28-21,7-.29.61-.77.75-1,2-.14.77-.07,2.15,0,3,.15,1.83.72,2.07,1,3,2.1,7.06,5.78,9.89,13.5,9.98,11.23.13,17.16-12.22,10.5-21.98Z"/>
      <path class="cls-2" d="M360.16,346.4c-6.69,7.95,3.4,20.1,13.67,12.68,11.56-8.35-4.53-23.56-13.67-12.68Z"/>
      <path class="cls-2" d="M430.92,238.67c-10.56,6-3.39,21.26,7.43,19.41,2.07-.35,2.15-1.82,2.49-2,.36-.09.7-.26,1.03-.47,1.56-.63,2.67-.79,3.7-3.29,4.01-9.76-5.68-18.74-14.65-13.65Z"/>
      <path class="cls-2" d="M254.58,100.04c-6.58,5.83-.17,17.54,8.6,14.83,1.22-.38,1.41-1.65,1.66-1.8.21-.05.41-.12.59-.22.72-.18,1.6-.21,2.45-1.2,5.83-6.74-5.19-18.8-13.3-11.62Z"/>
      <path class="cls-2" d="M290.44,381.19c-9.13,5.65-.09,22.29,10.39,13.89.15-.07.29-.21.43-.37,9.02-7.85-2.4-18.73-10.82-13.52Z"/>
      <path class="cls-2" d="M134.84,307.08c.02-.32.03-.68,0-1-.2-2.3-.87-2.49-2-4-.26-.35-.67-.71-1-1-8.32-7.24-18.83,4.06-11.45,11.94,4.49,4.79,14.09,1.37,14.45-5.94Z"/>
      <path class="cls-2" d="M387.48,315.17c-1.79,3.9-1.9,6.37.32,10.26.53.92,1.92.55,2.04.66s-.26,1.47.64,2.05c4.43,2.82,7.82,1.72,11.36-1.05.28-.15.53-.39.77-.65,13.5-11.67-9.21-24.15-15.13-11.26Z"/>
      <path class="cls-2" d="M259.94,399.64c2.53-.75,1.66-2.32,1.9-2.56.45-.45,2.7.55,2.96-3.59.19-3.05-.56-4.06-1.96-6.41-.2-.35-.68-.68-1-1-.28-.31-.65-.91-1-1-.28-.07-.66.02-1,0-1.42-3.53-6.64-1.79-8.92-.42-8.74,5.23-2.38,18.36,9.03,14.98Z"/>
      <path class="cls-2" d="M112.84,335.08c-.67-1.26-.43-2.17-1.92-3.59-1.12-1.07-2.17-.92-3.08-1.41-.33-.18-.37-1.58-2.48-1.98-1.59-.3-4.8-.2-6.52-.02-1.36.14-1.74.92-2,1-1.28.37-1.36-.04-3,1-16.13,10.28,1.36,33.68,16,22.48,1.86-1.42,1.39-2.6,2-3.48.38-.54,1.68-.9,2.24-2.21,1.02-2.37,1.24-7.67.55-10.13-.34-1.21-1.68-1.45-1.8-1.66Z"/>
      <path class="cls-2" d="M145.05,389.3c.34-.34.67-.69.97-1.06,4.49-5.46,4.1-13.45-.91-18.44-.34-.34-.7-.66-1.08-.97-5.07-4.08-12.3-4.04-17.33.09-3.18,2.62-5.02,6.52-5,10.63.01,4.12,1.87,8.01,5.06,10.61,5.43,4.42,13.3,4.04,18.29-.86Z"/>
      <path class="cls-2" d="M140.04,343.37c3.01,13.11,26.28.49,11.79-9.29-3.72-2.51-4.29-2.02-8,0-3.99,2.18-5,4.02-3.79,9.29Z"/>
      <path class="cls-2" d="M220.84,391.08c8.56-4.13,2.66-19.1-8.3-15.79-1.19.36-4.43,3.65-4.7,4.79-2.04,8.65,4.53,15.09,13,11Z"/>
      <path class="cls-2" d="M253.7,310.72l1.05,50.93c-.3,1.99,1.92,1.26,2.08,1.43.24.24-.97,2.66,2.43,2.01,1.64-.32,2.81-1.07,3.37-2.71l1.34-51.66,4.86-1.64c.33-.03.67.03,1,0,1.56-.12,3.16-.93,5-1,.32-.01.68-.03,1,0l16.13,34.36c2.58,3.93,7.99,2.07,6.87-2.36-.78-3.09-2.83-6.83-4-10-3.22-8.7-6.88-17.26-10-26,.18-.32.73-.62,1-1,2,.19,2.79-1.24,4-2,1.2-.76,5.89-4.01,6.36-3.93.44.08,5.56,4.96,6.64,5.93,3.35,3.03,6.1,6.61,10,9,.66.71,1.36,1.33,2,2,.9.95,1.9,1.91,2.88,2.88l1.12,1.12c2.8,2.86,4.87,5.31,8,8,.35.3.63.71,1,1,.36.29.63.73,1,1,1.44,1.03,2.92,3.72,6.06,1.55,3.15-2.18-.32-4.48-1.06-5.55-8.28-12.06-20.87-22.94-29.9-34.64,2.4-3.69,3.84-8.75,7.9-10.36,11.08,3.79,22.6,10.75,34,13,1.24.24,1.96,2.36,4.51,0,2.64-2.43,1.11-3.49-.51-5.01-7.7-7.21-26.86-11.48-36-18-.03-.31-.03-.69,0-1,.22-2.05,2.1-9.35,3.63-9.87l44.87-1.13c11.11-1.28,6.7-7.68-2.16-7.93-12.41-.34-24.74-.15-37.34-1.07-2.28-.17-4.63.28-6.9-.1l-1.66-10.9c9.31-5.95,20.45-8.75,29.56-15,5.76.44,10.06-6.09,4.53-9.06-13.01,3.47-25.04,10.76-37.85,13.94-.98-.32-1.95-1.99-2.68-2.88-1.47-1.78-3.88-5.62-2.26-7.72,6.91-7.29,13.53-14.84,20.26-22.28,2.05-2.27,4.29-4.41,6-7,.66-.69,1.33-1.26,2-2,2.26-2.49,5.62-4.96,2.35-8.06-2.02-.48-2.84.29-4.35,1.06-1.87.96-1.92,1.84-3,3-3.66,1.92-6.07,5.24-9,8-7.3,6.88-15.14,13.21-22.03,20.55-2.02,1-4.26-1.58-5.97-2.55-2.31-1.31-7.06-3.54-6.5-6.09,1.39-5.33,14.84-34.56,14.35-37.27-1.01-5.58-10.17-1.48-8.85,4.36-4.04,6.34-6.97,13.17-10,20-1.45,3.27-3.12,6.5-4,10-.33.02-.67-.03-1,0-1.97.16-4.02-.11-6,0-.32-.11-1.02-.65-2-1-.7-.25-2.13.19-3,0-.2-.04-.56-.81-1-1-.51-10.66-.68-21.33-1-32-.03-1,.03-2,0-3-.03-1,.03-2,0-3-.03-1,.04-2,0-3-.09-2.56-.61-18.01-1.14-18.85-.98-1.55-5.37-1.11-5.63,1.59l-2.22,55.77c-.43,3.05-4.41,3.15-7.01,3.49-.98-.09-2.69,1.41-4,.57-.61-.39-5.9-10.61-7-12.57.16-1.92-.65-3.4-1.46-5.04-1.42-2.92-7.82-16.9-9.05-17.95-2.25-1.91-5.82-.9-6.29,1.62-.74,3.94,12.78,29.89,13.65,36.13.59,2.17-1.38,3.06-2.86,4.24-1.48,1.18-7.77,5.14-8.96,4.55l-35.77-31.39c-11.75.57,4.55,13.51,7.72,16.84.33.34.68.66,1,1,2.6,2.75,5.46,5.3,8,8l1,1c.32.35.68.65,1,1,1.65,1.82,3.45,4.07,5,6,4.78,5.94,6.35,3.96,2,11-.97,1.58-2.47,2.99-3,5-.65-.08-1.34.06-2,0l-34.68-14.84c-3.25-.31-4.92,6.16-1.71,7.74,10.67,4.19,20.69,10.3,31.39,14.1,4.15,4.05,3.08,5.34,1.71,11.25-.25,1.09-1.58,2.11-1.71,2.75h-7c-.14-1.5-2.86-1.5-3,0-4.99,0-10.02-.08-15,0-2.33.04-4.67-.07-7,0-5.01.16-9.04.41-14,1l-.5-.98-.5.98c-5.25.58-8.85.56-4.36,6.86,16.67,1,33.73.27,50.36,1.14.66.03,1.34-.05,2,0l2,10c-.14.61.19,1.67,0,2-9.57,3.87-19.94,7.96-29,13-3.22,1.79-8.86,3.11-6.52,7.99.33.69,1.39,1.66,2.15,1.81,3.62.68,29.85-12.92,35.9-13.78,1.9-.04,7.2,7.74,7.34,8.67.37,2.37-28.24,31.46-31.93,35.76l-.95,5.55,6.56-.94,32.46-30.59c2.24-1.03,6.58,2.8,8.98,4.53,2.47,1.78,4.66,1.18,4,5.44-4.66,9.23-8.77,18.88-12,28.56-.17.5-.76,1.07-1,2-.16.62-1.67,1.33-.95,3.39,1.33,3.81,8.62,1.24,7.95-3.39,5.81-7.41,8.23-16.22,13-24,.72-1.17,2.77-4.62,3.67-4.91,1.16-.37,9.55.83,10.19,2.55Z"/>
      <path class="cls-2" d="M662.84,124.08c4.21,2.88,7.09,3.59,12.26,2.76,9.62-1.55,16.43-14.53,10.74-23.26-13.15-20.21-38.78-.51-27.01,16.51,1.36,1.96,2.02,2.65,4,4Z"/>
      <path class="cls-2" d="M794.32,126.16c-19.6-.48-37.08-11.53-57.48-6.08-6.36,1.7-10.9,3.77-15,9-5.27,6.72-7.85,19.06,2,23,.09.35.08,1.87,0,2l-.15.07c-.33.13-1.17.38-1.85.93-1.85,1.48-3.11,2.24-5,4l-1,1c-1.56,1.46-2.55,2.47-4,4l-.79.79c-.45.44-.9.86-1.21,1.21-.31.35-.68.65-1,1-3.96,4.33-5.39,6.18,2,4,12.8-3.78,27.41-4.42,39.38-10.12,7.02-3.34,12.13-9.2,18.15-13.85,2.35-1.81,16.5-11.01,16.47-12.03,4.81-2.55,11.05-4.43,15.72-6.78,8.64-4.37-4.21-2.09-6.23-2.14Z"/>
      <path class="cls-2" d="M681.46,151.96c-2.84-.46-5.85-1.13-8.62-1.88-6.81-1.83-12.92-5.7-20-7-7.76-1.42-14.44-.86-21,4-8.32,6.17-8.61,16.43-2,23.98-3.05.59-4.87,3.14-7,5.02-1.77,1.56-3.95,2.68-5,5-2.05.69-2.79,2.78-4,4-.66.67-1.38,1.3-2,2-7.12,7.96-14.12,17.87-13.99,28.99l10.97-14.52c4.45-4.1,9.37-7.65,14.03-11.47,9.62-6.38,20.66-8.64,30-15,2.86-1.95,4.57-3.67,7-6,.34-.33.67-.66,1-1,.33-.34.68-.66,1-1,1.77-1.2,3.44-2.54,5-4,.34-.32.65-.71,1-1,3.13.5,5.6-3.4,6.78-3.93,2.35-1.06,13.68-3.58,14.22-4.08,2.83-2.63-6.66-2-7.38-2.11Z"/>
      <path class="cls-2" d="M371.86,52.02c5.31,2.24,11.4,1.57,16.11-1.76.39-.28.77-.57,1.13-.88,3.38-2.86,5.48-6.94,5.85-11.34.37-4.41-1.03-8.78-3.89-12.16-.31-.37-.64-.72-.98-1.06-1.21-1.2-2.6-2.21-4.12-3-5.43-2.79-11.96-2.39-17.01,1.04-5.05,3.44-7.82,9.36-7.21,15.44.61,6.08,4.49,11.34,10.11,13.71Z"/>
      <path class="cls-2" d="M306.84,38.08c6.39,4.04,13.75,4.35,20,0,.36-.25.66-.69,1-1,3.82-3.47,7.05-7.95,6.9-13.4-.1-3.67-4.39-12.15-7.9-13.6-.28-.12-.71.11-1,0-5.49-5.18-14.75-3.17-20,1-1.07.85-1.23,1.2-2,2-5.72,5.96-5.64,14.35-1,21,1.32,1.89,2,2.74,4,4Z"/>
      <path class="cls-2" d="M433.84,67.08c6.68,8.78,19.49,9.2,27.96,2.42.94-.75.82-2.17,1.04-2.42.09-.1,1.39.27,2.03-.68,5.23-7.77,3.97-20.5-3.46-26.39-8.2-6.5-17.82-7.01-25.57.07-3.78,3.45-6.56,7.18-7.01,12.51-.36,4.27,1.11,12.24,5.01,14.49Z"/>
      <path class="cls-2" d="M49.46,335.19c-21.81,2.22-24.54,31.78-4.55,39.32,6.74,2.54,15.35,1.47,19.93-4.42,1.18-.71,1.3-1.29,2-2,12.39-12.47-.54-34.61-17.38-32.9Z"/>
      <path class="cls-2" d="M46.9,288.52c-1.52-4.98-8.1-11.5-13.05-12.95-7.51-2.21-16.32-1.16-21.02,5.51-.37.26-.67.68-1,1-6.68,6.6-6.71,18.44,0,25,.68.66.79,1.35,2,2,14.45,15.2,39.09-.85,33.06-20.56Z"/>
      <path class="cls-2" d="M50.84,123.08c5.24,14.51,22.2,17.78,33,7,1.68-1.67,2.89-2.78,4-5,6.63-13.25-2.73-29.36-17.47-30.05-8.41-.39-17.95,4.09-19.53,13.05-2.91.4-2.07,10.8-1.55,13.09.21.93,1.43,1.56,1.55,1.91Z"/>
      <path class="cls-2" d="M20.84,183.08c.3.36.66.67,1,1,3.68,3.57,4.59,5.43,10.49,6,6.41.62,10.85.26,15.51-4,.34-.31.71-.65,1-1,14.87-11.3,5.36-34.08-12.53-35.05-5.14-.28-13.34,3.56-16.46,7.56-4.61,5.91-5.74,16.18-2,22.77.28.5,2.12,1.7,2.99,2.72Z"/>
      <path class="cls-2" d="M237.49,38.47c.36.32.72.63,1.1.93,8.67,6.81,21.04,6.17,28.96-1.51s8.95-20.02,2.42-28.9c-4.43-6.02-11.61-9.39-19.07-8.94-7.46.45-14.19,4.64-17.88,11.15-5.1,9.01-3.25,20.37,4.47,27.28Z"/>
      <path class="cls-2" d="M110.84,401.08c-1.59-4.83-6.33-10.15-11.56-10.94-2.15-.32-11.58-.88-13.49-.63-4.02.54-7.74,4.34-9.95,7.56-11.86,17.32,5.25,37,25.04,29.52,2.09-.79,2.07-1.84,2.96-2.52.37-.28.66-.69,1-1,4.81-4.41,6.49-6.09,7-13,.07-.97.05-2.03,0-3-.11-2.17-.31-3.92-1-6Z"/>
      <path class="cls-2" d="M162.84,440.08c-.46-3.33-1.18-3.07-3-5-2.22-2.34-5.37-5.18-8.76-5.82-1.02-.19-11.04.56-12.24.82-.54.12-5.8,3.45-6.43,4.07-6.11,6.05-6.21,17.1-1.57,23.93.75,1.11,1.32,1.3,2,2,4.29,4.42,5.61,5.93,12.49,6.07,7.25.15,9.89-1.09,14.51-6.07.32-.34.71-.61,1-1,3.88-5.31,6.5-12,2-18-.03-.33.04-.67,0-1Z"/>
      <path class="cls-2" d="M202.84,46.08c.14-.57-.09-1.36,0-2,.2-.44,1.08-.52,1-2,2.26-16.33-11.31-28.03-27.24-25.74-15.75,2.26-24.58,21.29-15.76,34.74,10.18,15.52,37.9,12.17,42-5Z"/>
      <path class="cls-2" d="M99.44,82.44c.97,1.07,2.05,2.04,3.23,2.88.38.27.77.53,1.16.77,8.84,5.43,20.35,3.22,26.55-5.1,6.2-8.31,5.03-19.98-2.7-26.9-7.73-6.92-19.46-6.79-27.03.29-7.58,7.08-8.5,18.77-2.13,26.95.3.38.6.75.93,1.11Z"/>
      <path class="cls-2" d="M41.13,235.88c.98-4.32,1.85-10.76-2.29-13.8v-1c.77-2.54-1.84-1.81-2-2-.29-.33-.2-1.89-1.44-3.06-.8-.77-2.29-.7-2.56-.94-.1-.09.44-1.3-1.23-2.32-7.16-4.39-16.13-3.38-22.77,1.32-9.71,6.86-10.95,15.73-6,26,.35.73.49,1.22,1,2,.24.37.72.64,1,1,.34.43.16,1.75,1.45,3.01,10.83,10.59,31.56,4.26,34.85-10.21Z"/>
      <path class="cls-2" d="M355.97,460c-9.26-14.95-33.79-7.49-36.03,9.29-2.89,21.73,25.23,31.24,37.2,13.53,4.03-5.96,4.99-14.59.31-20.41-.41-1.31-.96-1.56-1.48-2.41Z"/>
      <path class="cls-2" d="M273.95,460.96c-5.2.33-13.06,5.22-15.62,9.69-3.89,6.8-4.91,15.61.5,21.72.17.42.5.81.74,1.2,4.87,8.03,16.38,10.8,24.32,5.79.8-.51,1.5-.45,2.41-1.48,18.13-10.53,8.23-38.23-12.34-36.93Z"/>
      <path class="cls-2" d="M419.02,436.98c-.18-.42-.52-.8-.74-1.2-3.18-5.7-4.42-7.73-11.02-9.82-.93-.29-1.96-.52-2.92-.69-2.14-.4-3.89-.6-6.07-.42-5.07.43-11.34,3.8-13.32,8.72-.81,2.02-3.54,11.06-3.74,12.97-.41,4.04,2.43,8.54,5.05,11.43,14.1,15.55,37.21,3.47,34.51-17.52-.29-2.22-1.31-2.44-1.76-3.47Z"/>
      <path class="cls-2" d="M466.27,389.64c-4.27-5.01-10.17-9.11-17.05-6.12-.33-.05-.65-.2-.97-.23-3.35-.32-3.26.43-5.56,1.76-2.79,1.61-6.29,4.02-7.69,7.17-.42.94-2.01,10.87-2.04,12.1-.01.55,2.01,6.45,2.47,7.2,4.47,7.35,15.2,10.01,22.91,7.07,1.25-.48,1.57-.98,2.41-1.48,5.29-3.15,7.07-4.09,8.8-10.74,1.82-7.02,1.23-9.87-2.54-15.52-.26-.39-.43-.84-.74-1.2Z"/>
      <path class="cls-2" d="M221.41,454.38c-3.98-1.95-10.04-4.29-13.95-.96l-.97-.23c-2.29-1.34-2.19,1.37-2.41,1.48-.39.2-1.88-.24-3.31.69-.93.6-1.21,2.06-1.5,2.28-.11.08-1.16-.73-2.54.65-5.93,5.95-7.02,14.91-3.99,22.46,4.42,11.04,12.77,14.29,23.9,11.86.79-.17,1.3-.2,2.18-.51.42-.15.79-.55,1.2-.74.5-.23,1.74.25,3.26-.71,12.82-8.08,11.45-29.72-1.86-36.26Z"/>
    </g>
  </g>
</svg>